<svg width="149" height="93" viewBox="0 0 149 93" fill="none" xmlns="http://www.w3.org/2000/svg">
<path d="M15.47 89.76H0.68L21.08 16.83C21.42 15.81 21.7033 14.5067 21.93 12.92C22.27 11.22 22.27 9.69 21.93 8.32999C21.59 6.96999 20.5133 6.29 18.7 6.29C16.2067 6.29 13.94 7.59333 11.9 10.2C9.86 12.8067 7.70667 17.2833 5.44 23.63L3.23 29.92H0L4.25 17.51C5.95 12.75 7.93333 9.12333 10.2 6.63C12.58 4.13666 15.0167 2.43666 17.51 1.52999C20.1167 0.509997 22.5533 0 24.82 0C28.22 0 30.6567 0.793333 32.13 2.38C33.6033 3.85333 34.3967 5.83666 34.51 8.32999C34.7367 10.71 34.5667 13.26 34 15.98C33.4333 18.7 32.81 21.3067 32.13 23.8L15.47 89.76ZM63.58 19.72C64.3733 17.34 64.8833 15.0733 65.11 12.92C65.45 10.7667 65.28 9.01 64.6 7.65C64.0333 6.17666 62.6733 5.44 60.52 5.44C57.3467 5.44 53.8333 7.42333 49.98 11.39C46.24 15.2433 42.3867 20.6833 38.42 27.71C34.5667 34.6233 30.8267 42.7267 27.2 52.02C23.5733 61.2 20.3433 71.06 17.51 81.6L23.12 54.4C28.3333 40.8 33.2067 30.0333 37.74 22.1C42.2733 14.1667 46.8067 8.5 51.34 5.1C55.9867 1.7 60.9167 0 66.13 0C69.7567 0 72.3633 0.849999 73.95 2.55C75.65 4.13666 76.67 6.23333 77.01 8.84C77.35 11.4467 77.2367 14.2233 76.67 17.17C76.2167 20.1167 75.65 22.95 74.97 25.67L57.63 89.76H42.33L63.58 19.72ZM106.08 19.72C107.213 16.2067 107.78 12.9767 107.78 10.03C107.78 6.97 106.533 5.44 104.04 5.44C100.64 5.44 97.07 7.42333 93.33 11.39C89.59 15.3567 85.7367 21.0233 81.77 28.39C77.8033 35.6433 73.8367 44.2 69.87 54.06C66.0167 63.8067 62.2767 74.5733 58.65 86.36L62.56 64.6C66.98 52.8133 71.06 42.84 74.8 34.68C78.54 26.4067 82.2233 19.72 85.85 14.62C89.4767 9.52 93.2167 5.83666 97.07 3.56999C100.923 1.19 105.117 0 109.65 0C114.41 0 117.64 1.36 119.34 4.08C121.04 6.8 121.72 10.1433 121.38 14.11C121.153 17.9633 120.417 21.8167 119.17 25.67L102.68 75.31C101.547 78.8233 101.15 81.4867 101.49 83.3C101.83 85 103.133 85.85 105.4 85.85C107.553 85.85 109.65 84.66 111.69 82.28C113.843 79.9 116.11 75.31 118.49 68.51L120.7 62.22H123.93L119.68 74.63C118.093 79.39 116.11 83.0167 113.73 85.51C111.463 88.0033 109.027 89.7033 106.42 90.61C103.927 91.63 101.49 92.14 99.11 92.14C96.2767 92.14 94.01 91.6867 92.31 90.78C90.7233 89.9867 89.4767 88.91 88.57 87.55C87.21 85.3967 86.7567 82.7333 87.21 79.56C87.6633 76.2733 88.57 72.5333 89.93 68.34L106.08 19.72Z" fill="white"/>
<path d="M127.091 83.47C127.091 80.07 128.394 77.0667 131.001 74.46C133.608 71.74 136.498 70.38 139.671 70.38C142.278 70.38 144.374 71.23 145.961 72.93C147.548 74.63 148.341 76.7267 148.341 79.22C148.341 81.4867 147.718 83.64 146.471 85.68C145.338 87.6067 143.808 89.1367 141.881 90.27C139.954 91.5167 137.858 92.14 135.591 92.14C133.098 92.14 131.058 91.3467 129.471 89.76C127.884 88.06 127.091 85.9633 127.091 83.47Z" fill="white"/>
</svg>
